Coordinates
version=1
nRows=9
nColumns=36
inDegrees=yes

Units are S.I. units (second, meters, Newtons, ...)
If the header above contains a line with 'inDegrees', this indicates whether rotational values are in degrees (yes) or radians (no).

endheader
time	pelvis_tilt	pelvis_list	pelvis_rotation	pelvis_tx	pelvis_ty	pelvis_tz	hip_flexion_r	hip_adduction_r	hip_rotation_r	knee_angle_r	knee_angle_r_beta	ankle_angle_r	subtalar_angle_r	mtp_angle_r	hip_flexion_l	hip_adduction_l	hip_rotation_l	knee_angle_l	knee_angle_l_beta	ankle_angle_l	subtalar_angle_l	mtp_angle_l	lumbar_extension	lumbar_bending	lumbar_rotation	arm_flex_r	arm_add_r	arm_rot_r	elbow_flex_r	pro_sup_r	arm_flex_l	arm_add_l	arm_rot_l	elbow_flex_l	pro_sup_l
      0.00000000	     -6.81403209	     -3.07344353	      0.06958507	      0.07051221	      1.14348953	      0.41450097	     11.73750810	      4.29276320	      5.02668297	      6.91871035	      0.12075428	     -1.89596732	    -18.93703543	     -6.36146008	     11.21053937	     -1.24625953	      1.46956646	      7.93370904	      0.13846934	      9.59500300	     -5.05087307	     -6.36146008	      1.86479110	      2.15948246	      0.25940991	     -1.84791960	     -6.08541733	      9.38209674	     30.90156882	     79.05239382	      1.94771638	     -7.11640071	     20.44178723	     29.23891208	     72.84715362
      0.01666670	     -7.44661934	     -2.90333336	     -0.08236283	      0.07156058	      1.14519657	      0.41429806	     12.81490959	      4.41305725	      4.98310077	      8.08188687	      0.14105554	      2.66194640	    -16.24794482	     -6.48572852	     11.80415440	     -0.50341927	      2.18505747	      7.87616157	      0.13746495	      9.98566297	     -5.14778695	     -6.48572852	      3.02319106	      2.34285273	      0.05721394	     -1.88710111	     -5.90663835	      8.47500122	     30.82294435	     79.25007383	      1.55699009	     -6.75229351	     18.69761783	     29.44892643	     73.25602268
      0.03333330	     -7.51179214	     -2.08913084	     -0.71876353	      0.07815692	      1.14270676	      0.41757724	     11.93161558	      3.73898338	      4.57664439	      6.81631720	      0.11896718	      3.50679727	    -14.33362650	     -6.53739103	     11.01417952	      0.17312172	      0.85777012	      7.18323763	      0.12537115	     10.40471652	     -4.17418540	     -6.53739103	      3.71037321	      1.40282729	      0.24903103	     -2.12978521	     -5.24686509	      6.92968528	     30.90169415	     80.39202604	      1.05985935	     -7.06257029	     17.64616390	     29.17870248	     74.47479320
      0.05000000	     -7.28278934	     -1.82744039	     -1.12940335	      0.07134415	      1.14833761	      0.41573130	     11.48478019	      3.49784351	      4.44155484	      6.18696283	      0.10798287	      3.33419308	    -13.79729939	     -6.90978617	     10.31428845	      0.58628619	      0.69289408	      6.17848726	      0.10783495	      9.79535414	     -4.27135847	     -6.90978617	      3.24333379	      1.25479024	      0.66716629	     -2.31703351	     -4.52640522	      1.98435262	     31.49141405	     89.55038760	      1.13562237	     -6.73258067	     14.76790205	     28.95567865	     83.09128014
      0.06666670	     -6.64087319	     -1.98361316	     -1.42998392	      0.07761416	      1.14680285	      0.41810566	     10.30075151	      3.75265156	      4.73225568	      5.32309200	      0.09290548	      2.81288192	    -13.44546110	     -6.93254279	      9.01303620	      0.39408040	      0.29795818	      5.51871266	      0.09631971	      9.60484904	     -3.99956803	     -6.93254279	      2.78495074	      1.43959250	      0.82465519	     -2.38791039	     -4.31163203	      1.36773602	     31.60617528	     89.56051197	      0.82616264	     -6.58357297	     14.03211023	     28.84724213	     83.07875775
      0.08333330	     -6.23117237	     -1.99300427	     -1.75583961	      0.07703618	      1.15687346	      0.41836575	      9.49038149	      3.80396218	      4.74144108	      4.68933258	      0.08184429	      2.39054054	    -12.84077545	     -6.99124849	      8.11674302	      0.39017013	     -0.03284939	      4.85828586	      0.08479308	      9.22142964	     -3.47071491	     -6.99124849	      2.36968767	      1.49659319	      1.08560956	     -2.54019636	     -4.16636511	      0.74988707	     31.43548651	     88.12408377	      0.74175782	     -6.10731680	     12.63844002	     28.57928384	     81.62080707
      0.10000000	     -6.02107669	     -2.10157202	     -2.05203180	      0.07735796	      1.14606413	      0.41853935	      9.09396429	      3.99080163	      5.26699937	      4.37759861	      0.07640351	      2.03477624	    -13.25980755	     -7.05619548	      7.71892666	      0.19400900	     -0.28913447	      4.70204204	      0.08206612	      9.19296800	     -3.76325745	     -7.05619548	      2.15998724	      1.61320883	      1.42468853	     -2.61226497	     -4.07582905	      0.69323916	     31.62539834	     86.26054656	      0.39305723	     -5.97391497	     12.01868345	     29.30805672	     80.09355462
      0.11666670	     -6.06015444	     -2.14164491	     -2.20705024	      0.07111202	      1.14888105	      0.41621763	      9.30015447	      4.01227001	      5.27236408	      4.47305757	      0.07806958	      1.84665489	    -13.38524391	     -7.15126450	      7.84170410	      0.18031648	     -0.50550548	      4.67317375	      0.08156227	      9.11457858	     -3.74091904	     -7.15126450	      1.88308878	      1.80946810	      1.21723993	     -2.04486682	     -4.20444925	      0.99940182	     31.52425247	     89.23076653	      0.11797660	     -5.50964815	      9.15810225	     29.98462768	     82.62287129
      0.13333330	     -5.99603730	     -2.09281819	     -2.14099667	      0.07016050	      1.14832430	      0.41641856	      9.43189640	      3.93456007	      5.41449554	      4.33062875	      0.07558373	      1.70380511	    -13.46400290	     -7.17601812	      7.97340718	      0.24532232	     -0.53177199	      4.80642010	      0.08388786	      9.06162703	     -4.02318627	     -7.17601812	      1.51220268	      1.78824903	      1.37766082	     -1.85936964	     -4.20473811	      0.97850168	     31.78589121	     88.70768341	      0.49528609	     -5.45297401	      9.19923202	     30.24663950	     82.31057655
